<?xml version="1.0"?>
<!-- Generated by SVGo -->
<svg width="730" height="771"
     xmlns="http://www.w3.org/2000/svg"
     xmlns:xlink="http://www.w3.org/1999/xlink">
<g style="font-size:20px;font-family:sans-serif">
<g style="font-style:italic;font-size:16px">
<rect x="366" y="29" width="234" height="26" style="fill-opacity:0.3;fill:red" />
<text x="360" y="48" style="text-anchor:end" >+426.08%</text>
</g>
<text x="0" y="55" style="text-anchor:start" >BenchmarkSum10-8</text>
<g style="font-style:italic;font-size:16px">
<rect x="465" y="63" width="135" height="26" style="fill-opacity:0.3;fill:red" />
<text x="459" y="82" style="text-anchor:end" >+247.24%</text>
</g>
<text x="0" y="89" style="text-anchor:start" >BenchmarkSum11-8</text>
<g style="font-style:italic;font-size:16px">
<rect x="528" y="97" width="72" height="26" style="fill-opacity:0.3;fill:red" />
<text x="522" y="116" style="text-anchor:end" >+132.26%</text>
</g>
<text x="0" y="123" style="text-anchor:start" >BenchmarkSum12-8</text>
<g style="font-style:italic;font-size:16px">
<rect x="570" y="131" width="30" height="26" style="fill-opacity:0.3;fill:red" />
<text x="564" y="150" style="text-anchor:end" >+55.02%</text>
</g>
<text x="0" y="157" style="text-anchor:start" >BenchmarkSum13-8</text>
<g style="font-style:italic;font-size:16px">
<rect x="595" y="165" width="5" height="26" style="fill-opacity:0.3;fill:red" />
<text x="589" y="184" style="text-anchor:end" >+9.90%</text>
</g>
<text x="0" y="191" style="text-anchor:start" >BenchmarkSum14-8</text>
<g style="font-style:italic;font-size:16px">
<rect x="600" y="199" width="10" height="26" style="fill-opacity:0.3;fill:green" />
<text x="616" y="218" style="text-anchor:start" >-19.73%</text>
</g>
<text x="0" y="225" style="text-anchor:start" >BenchmarkSum15-8</text>
<g style="font-style:italic;font-size:16px">
<rect x="600" y="233" width="22" height="26" style="fill-opacity:0.3;fill:green" />
<text x="628" y="252" style="text-anchor:start" >-40.63%</text>
</g>
<text x="0" y="259" style="text-anchor:start" >BenchmarkSum16-8</text>
<g style="font-style:italic;font-size:16px">
<rect x="600" y="267" width="28" height="26" style="fill-opacity:0.3;fill:green" />
<text x="634" y="286" style="text-anchor:start" >-51.19%</text>
</g>
<text x="0" y="293" style="text-anchor:start" >BenchmarkSum17-8</text>
<g style="font-style:italic;font-size:16px">
<rect x="600" y="301" width="30" height="26" style="fill-opacity:0.3;fill:green" />
<text x="636" y="320" style="text-anchor:start" >-54.81%</text>
</g>
<text x="0" y="327" style="text-anchor:start" >BenchmarkSum18-8</text>
<g style="font-style:italic;font-size:16px">
<rect x="600" y="335" width="33" height="26" style="fill-opacity:0.3;fill:green" />
<text x="639" y="354" style="text-anchor:start" >-61.74%</text>
</g>
<text x="0" y="361" style="text-anchor:start" >BenchmarkSum19-8</text>
<g style="font-style:italic;font-size:16px">
<rect x="600" y="369" width="36" height="26" style="fill-opacity:0.3;fill:green" />
<text x="642" y="388" style="text-anchor:start" >-66.85%</text>
</g>
<text x="0" y="395" style="text-anchor:start" >BenchmarkSum20-8</text>
<g style="font-style:italic;font-size:16px">
<rect x="600" y="403" width="37" height="26" style="fill-opacity:0.3;fill:green" />
<text x="643" y="422" style="text-anchor:start" >-68.08%</text>
</g>
<text x="0" y="429" style="text-anchor:start" >BenchmarkSum21-8</text>
<g style="font-style:italic;font-size:16px">
<rect x="600" y="437" width="37" height="26" style="fill-opacity:0.3;fill:green" />
<text x="643" y="456" style="text-anchor:start" >-68.68%</text>
</g>
<text x="0" y="463" style="text-anchor:start" >BenchmarkSum22-8</text>
<g style="font-style:italic;font-size:16px">
<rect x="600" y="471" width="37" height="26" style="fill-opacity:0.3;fill:green" />
<text x="643" y="490" style="text-anchor:start" >-67.37%</text>
</g>
<text x="0" y="497" style="text-anchor:start" >BenchmarkSum23-8</text>
<g style="font-style:italic;font-size:16px">
<rect x="600" y="505" width="37" height="26" style="fill-opacity:0.3;fill:green" />
<text x="643" y="524" style="text-anchor:start" >-67.50%</text>
</g>
<text x="0" y="531" style="text-anchor:start" >BenchmarkSum24-8</text>
<g style="font-style:italic;font-size:16px">
<rect x="600" y="539" width="37" height="26" style="fill-opacity:0.3;fill:green" />
<text x="643" y="558" style="text-anchor:start" >-67.57%</text>
</g>
<text x="0" y="565" style="text-anchor:start" >BenchmarkSum25-8</text>
<g style="font-style:italic;font-size:16px">
<rect x="600" y="573" width="37" height="26" style="fill-opacity:0.3;fill:green" />
<text x="643" y="592" style="text-anchor:start" >-68.38%</text>
</g>
<text x="0" y="599" style="text-anchor:start" >BenchmarkSum26-8</text>
<g style="font-style:italic;font-size:16px">
<rect x="600" y="607" width="37" height="26" style="fill-opacity:0.3;fill:green" />
<text x="643" y="626" style="text-anchor:start" >-68.01%</text>
</g>
<text x="0" y="633" style="text-anchor:start" >BenchmarkSum27-8</text>
<g style="font-style:italic;font-size:16px">
<rect x="600" y="641" width="36" height="26" style="fill-opacity:0.3;fill:green" />
<text x="642" y="660" style="text-anchor:start" >-65.56%</text>
</g>
<text x="0" y="667" style="text-anchor:start" >BenchmarkSum28-8</text>
<g style="font-style:italic;font-size:16px">
<rect x="600" y="675" width="36" height="26" style="fill-opacity:0.3;fill:green" />
<text x="642" y="694" style="text-anchor:start" >-67.19%</text>
</g>
<text x="0" y="701" style="text-anchor:start" >BenchmarkSum29-8</text>
<g style="font-style:italic;font-size:16px">
<rect x="600" y="709" width="37" height="26" style="fill-opacity:0.3;fill:green" />
<text x="643" y="728" style="text-anchor:start" >-67.95%</text>
</g>
<text x="0" y="735" style="text-anchor:start" >BenchmarkSum30-8</text>
</g>
</svg>
