<?xml version="1.0"?>
<!-- Generated by SVGo -->
<svg width="1024" height="689"
     xmlns="http://www.w3.org/2000/svg"
     xmlns:xlink="http://www.w3.org/1999/xlink">
<rect x="0" y="0" width="1024" height="689" style="fill:white;stroke-width:2px;stroke:lightgray" />
<g style="font-size:20px;font-family:sans-serif">
<text x="100" y="50" style="font-size:150%" ></text>
<g style="font-style:italic;font-size:75%">
<rect x="357" y="118" width="255" height="20" style="fill-opacity:0.3;fill:red" />
<text x="352" y="133" style="text-anchor:end" >+426.08%</text>
</g>
<text x="100" y="138" style="text-anchor:start" >BenchmarkSum10-8</text>
<g style="font-style:italic;font-size:75%">
<rect x="464" y="144" width="148" height="20" style="fill-opacity:0.3;fill:red" />
<text x="459" y="159" style="text-anchor:end" >+247.24%</text>
</g>
<text x="100" y="164" style="text-anchor:start" >BenchmarkSum11-8</text>
<g style="font-style:italic;font-size:75%">
<rect x="533" y="170" width="79" height="20" style="fill-opacity:0.3;fill:red" />
<text x="528" y="185" style="text-anchor:end" >+132.26%</text>
</g>
<text x="100" y="190" style="text-anchor:start" >BenchmarkSum12-8</text>
<g style="font-style:italic;font-size:75%">
<rect x="579" y="196" width="33" height="20" style="fill-opacity:0.3;fill:red" />
<text x="574" y="211" style="text-anchor:end" >+55.02%</text>
</g>
<text x="100" y="216" style="text-anchor:start" >BenchmarkSum13-8</text>
<g style="font-style:italic;font-size:75%">
<rect x="607" y="222" width="5" height="20" style="fill-opacity:0.3;fill:red" />
<text x="602" y="237" style="text-anchor:end" >+9.90%</text>
</g>
<text x="100" y="242" style="text-anchor:start" >BenchmarkSum14-8</text>
<g style="font-style:italic;font-size:75%">
<rect x="612" y="248" width="11" height="20" style="fill-opacity:0.3;fill:green" />
<text x="628" y="263" style="text-anchor:start" >-19.73%</text>
</g>
<text x="100" y="268" style="text-anchor:start" >BenchmarkSum15-8</text>
<g style="font-style:italic;font-size:75%">
<rect x="612" y="274" width="24" height="20" style="fill-opacity:0.3;fill:green" />
<text x="641" y="289" style="text-anchor:start" >-40.63%</text>
</g>
<text x="100" y="294" style="text-anchor:start" >BenchmarkSum16-8</text>
<g style="font-style:italic;font-size:75%">
<rect x="612" y="300" width="30" height="20" style="fill-opacity:0.3;fill:green" />
<text x="647" y="315" style="text-anchor:start" >-51.19%</text>
</g>
<text x="100" y="320" style="text-anchor:start" >BenchmarkSum17-8</text>
<g style="font-style:italic;font-size:75%">
<rect x="612" y="326" width="32" height="20" style="fill-opacity:0.3;fill:green" />
<text x="649" y="341" style="text-anchor:start" >-54.81%</text>
</g>
<text x="100" y="346" style="text-anchor:start" >BenchmarkSum18-8</text>
<g style="font-style:italic;font-size:75%">
<rect x="612" y="352" width="37" height="20" style="fill-opacity:0.3;fill:green" />
<text x="654" y="367" style="text-anchor:start" >-61.74%</text>
</g>
<text x="100" y="372" style="text-anchor:start" >BenchmarkSum19-8</text>
<g style="font-style:italic;font-size:75%">
<rect x="612" y="378" width="40" height="20" style="fill-opacity:0.3;fill:green" />
<text x="657" y="393" style="text-anchor:start" >-66.85%</text>
</g>
<text x="100" y="398" style="text-anchor:start" >BenchmarkSum20-8</text>
<g style="font-style:italic;font-size:75%">
<rect x="612" y="404" width="40" height="20" style="fill-opacity:0.3;fill:green" />
<text x="657" y="419" style="text-anchor:start" >-68.08%</text>
</g>
<text x="100" y="424" style="text-anchor:start" >BenchmarkSum21-8</text>
<g style="font-style:italic;font-size:75%">
<rect x="612" y="430" width="41" height="20" style="fill-opacity:0.3;fill:green" />
<text x="658" y="445" style="text-anchor:start" >-68.68%</text>
</g>
<text x="100" y="450" style="text-anchor:start" >BenchmarkSum22-8</text>
<g style="font-style:italic;font-size:75%">
<rect x="612" y="456" width="40" height="20" style="fill-opacity:0.3;fill:green" />
<text x="657" y="471" style="text-anchor:start" >-67.37%</text>
</g>
<text x="100" y="476" style="text-anchor:start" >BenchmarkSum23-8</text>
<g style="font-style:italic;font-size:75%">
<rect x="612" y="482" width="40" height="20" style="fill-opacity:0.3;fill:green" />
<text x="657" y="497" style="text-anchor:start" >-67.50%</text>
</g>
<text x="100" y="502" style="text-anchor:start" >BenchmarkSum24-8</text>
<g style="font-style:italic;font-size:75%">
<rect x="612" y="508" width="40" height="20" style="fill-opacity:0.3;fill:green" />
<text x="657" y="523" style="text-anchor:start" >-67.57%</text>
</g>
<text x="100" y="528" style="text-anchor:start" >BenchmarkSum25-8</text>
<g style="font-style:italic;font-size:75%">
<rect x="612" y="534" width="41" height="20" style="fill-opacity:0.3;fill:green" />
<text x="658" y="549" style="text-anchor:start" >-68.38%</text>
</g>
<text x="100" y="554" style="text-anchor:start" >BenchmarkSum26-8</text>
<g style="font-style:italic;font-size:75%">
<rect x="612" y="560" width="40" height="20" style="fill-opacity:0.3;fill:green" />
<text x="657" y="575" style="text-anchor:start" >-68.01%</text>
</g>
<text x="100" y="580" style="text-anchor:start" >BenchmarkSum27-8</text>
<g style="font-style:italic;font-size:75%">
<rect x="612" y="586" width="39" height="20" style="fill-opacity:0.3;fill:green" />
<text x="656" y="601" style="text-anchor:start" >-65.56%</text>
</g>
<text x="100" y="606" style="text-anchor:start" >BenchmarkSum28-8</text>
<g style="font-style:italic;font-size:75%">
<rect x="612" y="612" width="40" height="20" style="fill-opacity:0.3;fill:green" />
<text x="657" y="627" style="text-anchor:start" >-67.19%</text>
</g>
<text x="100" y="632" style="text-anchor:start" >BenchmarkSum29-8</text>
<g style="font-style:italic;font-size:75%">
<rect x="612" y="638" width="40" height="20" style="fill-opacity:0.3;fill:green" />
<text x="657" y="653" style="text-anchor:start" >-67.95%</text>
</g>
<text x="100" y="658" style="text-anchor:start" >BenchmarkSum30-8</text>
</g>
</svg>
