<?xml version="1.0"?>
<!-- Generated by SVGo -->
<svg width="730" height="431"
     xmlns="http://www.w3.org/2000/svg"
     xmlns:xlink="http://www.w3.org/1999/xlink">
<g style="font-size:20px;font-family:sans-serif">
<g style="font-style:italic;font-size:16px">
<rect x="363" y="29" width="237" height="26" style="fill-opacity:0.3;fill:red" />
<text x="357" y="48" style="text-anchor:end" >+431.65%</text>
</g>
<text x="0" y="55" style="text-anchor:start" >BenchmarkSum10-8</text>
<g style="font-style:italic;font-size:16px">
<rect x="462" y="63" width="138" height="26" style="fill-opacity:0.3;fill:red" />
<text x="456" y="82" style="text-anchor:end" >+252.58%</text>
</g>
<text x="0" y="89" style="text-anchor:start" >BenchmarkSum11-8</text>
<g style="font-style:italic;font-size:16px">
<rect x="530" y="97" width="70" height="26" style="fill-opacity:0.3;fill:red" />
<text x="524" y="116" style="text-anchor:end" >+127.92%</text>
</g>
<text x="0" y="123" style="text-anchor:start" >BenchmarkSum12-8</text>
<g style="font-style:italic;font-size:16px">
<rect x="567" y="131" width="33" height="26" style="fill-opacity:0.3;fill:red" />
<text x="561" y="150" style="text-anchor:end" >+60.60%</text>
</g>
<text x="0" y="157" style="text-anchor:start" >BenchmarkSum13-8</text>
<g style="font-style:italic;font-size:16px">
<rect x="594" y="165" width="6" height="26" style="fill-opacity:0.3;fill:red" />
<text x="588" y="184" style="text-anchor:end" >+11.32%</text>
</g>
<text x="0" y="191" style="text-anchor:start" >BenchmarkSum14-8</text>
<g style="font-style:italic;font-size:16px">
<rect x="600" y="199" width="8" height="26" style="fill-opacity:0.3;fill:green" />
<text x="614" y="218" style="text-anchor:start" >-15.61%</text>
</g>
<text x="0" y="225" style="text-anchor:start" >BenchmarkSum15-8</text>
<g style="font-style:italic;font-size:16px">
<rect x="600" y="233" width="21" height="26" style="fill-opacity:0.3;fill:green" />
<text x="627" y="252" style="text-anchor:start" >-39.69%</text>
</g>
<text x="0" y="259" style="text-anchor:start" >BenchmarkSum16-8</text>
<g style="font-style:italic;font-size:16px">
<rect x="600" y="267" width="29" height="26" style="fill-opacity:0.3;fill:green" />
<text x="635" y="286" style="text-anchor:start" >-52.74%</text>
</g>
<text x="0" y="293" style="text-anchor:start" >BenchmarkSum17-8</text>
<g style="font-style:italic;font-size:16px">
<rect x="600" y="301" width="29" height="26" style="fill-opacity:0.3;fill:green" />
<text x="635" y="320" style="text-anchor:start" >-54.46%</text>
</g>
<text x="0" y="327" style="text-anchor:start" >BenchmarkSum18-8</text>
<g style="font-style:italic;font-size:16px">
<rect x="600" y="335" width="33" height="26" style="fill-opacity:0.3;fill:green" />
<text x="639" y="354" style="text-anchor:start" >-60.17%</text>
</g>
<text x="0" y="361" style="text-anchor:start" >BenchmarkSum19-8</text>
<g style="font-style:italic;font-size:16px">
<rect x="600" y="369" width="35" height="26" style="fill-opacity:0.3;fill:green" />
<text x="641" y="388" style="text-anchor:start" >-64.27%</text>
</g>
<text x="0" y="395" style="text-anchor:start" >BenchmarkSum20-8</text>
</g>
</svg>
